<svg fill="none" height="24" viewBox="0 0 24 24" width="24" xmlns="http://www.w3.org/2000/svg"><g fill="#fff"><path d="m19 12c0 3.866-3.134 7-7 7-3.86599 0-7-3.134-7-7 0-3.86599 3.13401-7 7-7 3.866 0 7 3.13401 7 7z"/><path d="m11 0h2v3h-2z"/><path d="m11 21h2v3h-2z"/><path d="m21.8923 5.13391h2v3h-2z" transform="matrix(.5 .8660254 -.8660254 .5 15.392246 -16.392333)"/><path d="m3.70581 15.6339h2v3h-2z" transform="matrix(.5 .8660254 -.8660254 .5 15.39226 4.607624)"/><path d="m1.10767 6.86609h2v3h-2z" transform="matrix(.5 -.8660254 .8660254 .5 -5.392373 4.392315)"/><path d="m19.2942 17.3661h2v3h-2z" transform="matrix(.5 -.8660254 .8660254 .5 -5.392384 25.392317)"/><path d="m11 0h2v3h-2z"/><path d="m11 21h2v3h-2z"/><path d="m2.10767 18.8661h2v3h-2z" transform="matrix(-.5 -.8660254 .8660254 -.5 -13.177017 30.124446)"/><path d="m20.2942 8.36609h2v3h-2z" transform="matrix(-.5 -.8660254 .8660254 -.5 23.196054 30.124428)"/><path d="m1.10767 6.86609h2v3h-2z" transform="matrix(.5 -.8660254 .8660254 .5 -5.392373 4.392315)"/><path d="m19.2942 17.3661h2v3h-2z" transform="matrix(.5 -.8660254 .8660254 .5 -5.392384 25.392317)"/></g></svg>