<?xml version="1.0" encoding="UTF-8"?>
<svg width="400px" height="400px" viewBox="0 0 400 400" version="1.1" xmlns="http://www.w3.org/2000/svg" xmlns:xlink="http://www.w3.org/1999/xlink">
    <!-- Generator: Sketch 64 (93537) - https://sketch.com -->
    <title>trooperLight</title>
    <desc>Created with Sketch.</desc>
    <g id="trooperLight" stroke="none" stroke-width="1" fill="none" fill-rule="evenodd">
        <g id="Group" transform="translate(56.000000, 45.000000)" fill="#E2E2E2">
            <rect id="Rectangle" x="83.2000046" y="0" width="62.4000034" height="20.8000011"></rect>
            <rect id="Rectangle-Copy-17" x="62.4000034" y="81.9000045" width="83.2000046" height="20.8000011"></rect>
            <rect id="Rectangle-Copy" x="62.4000034" y="20.8000011" width="20.8000011" height="20.8000011"></rect>
            <rect id="Rectangle-Copy-5" x="41.6000023" y="185.90001" width="20.8000011" height="20.8000011"></rect>
            <rect id="Rectangle-Copy-7" x="20.8000011" y="267.800015" width="20.8000011" height="20.8000011"></rect>
            <rect id="Rectangle-Copy-8" x="62.4000034" y="247.000014" width="20.8000011" height="20.8000011"></rect>
            <rect id="Rectangle-Copy-10" x="104.000006" y="267.800015" width="20.8000011" height="20.8000011"></rect>
            <rect id="Rectangle-Copy-11" x="124.800007" y="247.000014" width="20.8000011" height="41.6000023"></rect>
            <rect id="Rectangle-Copy-12" x="124.800007" y="165.100009" width="20.8000011" height="62.4000034"></rect>
            <rect id="Rectangle-Copy-13" x="104.000006" y="185.90001" width="20.8000011" height="41.6000023"></rect>
            <rect id="Rectangle-Copy-14" x="83.2000046" y="206.700011" width="20.8000011" height="20.8000011"></rect>
            <rect id="Rectangle-Copy-15" x="104.000006" y="123.500007" width="20.8000011" height="20.8000011"></rect>
            <rect id="Rectangle-Copy-16" x="62.4000034" y="123.500007" width="41.6000023" height="41.6000023"></rect>
            <rect id="Rectangle-Copy-9" x="41.6000023" y="288.600016" width="83.2000046" height="20.8000011"></rect>
            <rect id="Rectangle-Copy-3" x="41.6000023" y="41.6000023" width="20.8000011" height="81.9000045"></rect>
            <rect id="Rectangle-Copy-4" x="20.8000011" y="123.500007" width="20.8000011" height="83.2000046"></rect>
            <rect id="Rectangle-Copy-6" x="0" y="206.700011" width="20.8000011" height="61.1000034"></rect>
            <rect id="Rectangle" transform="translate(174.200010, 10.400001) scale(-1, 1) translate(-174.200010, -10.400001) " x="143.000008" y="0" width="62.4000034" height="20.8000011"></rect>
            <rect id="Rectangle-Copy-17" transform="translate(184.600010, 92.300005) scale(-1, 1) translate(-184.600010, -92.300005) " x="143.000008" y="81.9000045" width="83.2000046" height="20.8000011"></rect>
            <rect id="Rectangle-Copy" transform="translate(215.800012, 31.200002) scale(-1, 1) translate(-215.800012, -31.200002) " x="205.400011" y="20.8000011" width="20.8000011" height="20.8000011"></rect>
            <rect id="Rectangle-Copy-5" transform="translate(236.600013, 196.300011) scale(-1, 1) translate(-236.600013, -196.300011) " x="226.200012" y="185.90001" width="20.8000011" height="20.8000011"></rect>
            <rect id="Rectangle-Copy-7" transform="translate(257.400014, 278.200015) scale(-1, 1) translate(-257.400014, -278.200015) " x="247.000014" y="267.800015" width="20.8000011" height="20.8000011"></rect>
            <rect id="Rectangle-Copy-8" transform="translate(215.800012, 257.400014) scale(-1, 1) translate(-215.800012, -257.400014) " x="205.400011" y="247.000014" width="20.8000011" height="20.8000011"></rect>
            <rect id="Rectangle-Copy-10" transform="translate(174.200010, 278.200015) scale(-1, 1) translate(-174.200010, -278.200015) " x="163.800009" y="267.800015" width="20.8000011" height="20.8000011"></rect>
            <rect id="Rectangle-Copy-11" transform="translate(153.400008, 267.800015) scale(-1, 1) translate(-153.400008, -267.800015) " x="143.000008" y="247.000014" width="20.8000011" height="41.6000023"></rect>
            <rect id="Rectangle-Copy-12" transform="translate(153.400008, 196.300011) scale(-1, 1) translate(-153.400008, -196.300011) " x="143.000008" y="165.100009" width="20.8000011" height="62.4000034"></rect>
            <rect id="Rectangle-Copy-13" transform="translate(174.200010, 206.700011) scale(-1, 1) translate(-174.200010, -206.700011) " x="163.800009" y="185.90001" width="20.8000011" height="41.6000023"></rect>
            <rect id="Rectangle-Copy-14" transform="translate(195.000011, 217.100012) scale(-1, 1) translate(-195.000011, -217.100012) " x="184.60001" y="206.700011" width="20.8000011" height="20.8000011"></rect>
            <rect id="Rectangle-Copy-15" transform="translate(174.200010, 133.900007) scale(-1, 1) translate(-174.200010, -133.900007) " x="163.800009" y="123.500007" width="20.8000011" height="20.8000011"></rect>
            <rect id="Rectangle-Copy-16" transform="translate(205.400011, 144.300008) scale(-1, 1) translate(-205.400011, -144.300008) " x="184.60001" y="123.500007" width="41.6000023" height="41.6000023"></rect>
            <rect id="Rectangle-Copy-9" transform="translate(205.400011, 299.000016) scale(-1, 1) translate(-205.400011, -299.000016) " x="163.800009" y="288.600016" width="83.2000046" height="20.8000011"></rect>
            <rect id="Rectangle-Copy-3" transform="translate(236.600013, 82.550005) scale(-1, 1) translate(-236.600013, -82.550005) " x="226.200012" y="41.6000023" width="20.8000011" height="81.9000045"></rect>
            <rect id="Rectangle-Copy-4" transform="translate(257.400014, 165.100009) scale(-1, 1) translate(-257.400014, -165.100009) " x="247.000014" y="123.500007" width="20.8000011" height="83.2000046"></rect>
            <rect id="Rectangle-Copy-6" transform="translate(278.200015, 237.250013) scale(-1, 1) translate(-278.200015, -237.250013) " x="267.800015" y="206.700011" width="20.8000011" height="61.1000034"></rect>
        </g>
    </g>
</svg>