<svg xmlns="http://www.w3.org/2000/svg" xmlns:xlink="http://www.w3.org/1999/xlink" width="400" height="400" version="1.1" viewBox="0 0 400 400"><title>trooperDark</title><desc>Created with Sketch.</desc><g id="trooperDark" fill="none" fill-rule="evenodd" stroke="none" stroke-width="1"><g id="Group" fill="#07003B" transform="translate(56.000000, 45.000000)"><rect id="Rectangle" width="62.4" height="20.8" x="83.2" y="0"/><rect id="Rectangle-Copy-17" width="83.2" height="20.8" x="62.4" y="81.9"/><rect id="Rectangle-Copy" width="20.8" height="20.8" x="62.4" y="20.8"/><rect id="Rectangle-Copy-5" width="20.8" height="20.8" x="41.6" y="185.9"/><rect id="Rectangle-Copy-7" width="20.8" height="20.8" x="20.8" y="267.8"/><rect id="Rectangle-Copy-8" width="20.8" height="20.8" x="62.4" y="247"/><rect id="Rectangle-Copy-10" width="20.8" height="20.8" x="104" y="267.8"/><rect id="Rectangle-Copy-11" width="20.8" height="41.6" x="124.8" y="247"/><rect id="Rectangle-Copy-12" width="20.8" height="62.4" x="124.8" y="165.1"/><rect id="Rectangle-Copy-13" width="20.8" height="41.6" x="104" y="185.9"/><rect id="Rectangle-Copy-14" width="20.8" height="20.8" x="83.2" y="206.7"/><rect id="Rectangle-Copy-15" width="20.8" height="20.8" x="104" y="123.5"/><rect id="Rectangle-Copy-16" width="41.6" height="41.6" x="62.4" y="123.5"/><rect id="Rectangle-Copy-9" width="83.2" height="20.8" x="41.6" y="288.6"/><rect id="Rectangle-Copy-3" width="20.8" height="81.9" x="41.6" y="41.6"/><rect id="Rectangle-Copy-4" width="20.8" height="83.2" x="20.8" y="123.5"/><rect id="Rectangle-Copy-6" width="20.8" height="61.1" x="0" y="206.7"/><rect id="Rectangle" width="62.4" height="20.8" x="143" y="0" transform="translate(174.200010, 10.400001) scale(-1, 1) translate(-174.200010, -10.400001)"/><rect id="Rectangle-Copy-17" width="83.2" height="20.8" x="143" y="81.9" transform="translate(184.600010, 92.300005) scale(-1, 1) translate(-184.600010, -92.300005)"/><rect id="Rectangle-Copy" width="20.8" height="20.8" x="205.4" y="20.8" transform="translate(215.800012, 31.200002) scale(-1, 1) translate(-215.800012, -31.200002)"/><rect id="Rectangle-Copy-5" width="20.8" height="20.8" x="226.2" y="185.9" transform="translate(236.600013, 196.300011) scale(-1, 1) translate(-236.600013, -196.300011)"/><rect id="Rectangle-Copy-7" width="20.8" height="20.8" x="247" y="267.8" transform="translate(257.400014, 278.200015) scale(-1, 1) translate(-257.400014, -278.200015)"/><rect id="Rectangle-Copy-8" width="20.8" height="20.8" x="205.4" y="247" transform="translate(215.800012, 257.400014) scale(-1, 1) translate(-215.800012, -257.400014)"/><rect id="Rectangle-Copy-10" width="20.8" height="20.8" x="163.8" y="267.8" transform="translate(174.200010, 278.200015) scale(-1, 1) translate(-174.200010, -278.200015)"/><rect id="Rectangle-Copy-11" width="20.8" height="41.6" x="143" y="247" transform="translate(153.400008, 267.800015) scale(-1, 1) translate(-153.400008, -267.800015)"/><rect id="Rectangle-Copy-12" width="20.8" height="62.4" x="143" y="165.1" transform="translate(153.400008, 196.300011) scale(-1, 1) translate(-153.400008, -196.300011)"/><rect id="Rectangle-Copy-13" width="20.8" height="41.6" x="163.8" y="185.9" transform="translate(174.200010, 206.700011) scale(-1, 1) translate(-174.200010, -206.700011)"/><rect id="Rectangle-Copy-14" width="20.8" height="20.8" x="184.6" y="206.7" transform="translate(195.000011, 217.100012) scale(-1, 1) translate(-195.000011, -217.100012)"/><rect id="Rectangle-Copy-15" width="20.8" height="20.8" x="163.8" y="123.5" transform="translate(174.200010, 133.900007) scale(-1, 1) translate(-174.200010, -133.900007)"/><rect id="Rectangle-Copy-16" width="41.6" height="41.6" x="184.6" y="123.5" transform="translate(205.400011, 144.300008) scale(-1, 1) translate(-205.400011, -144.300008)"/><rect id="Rectangle-Copy-9" width="83.2" height="20.8" x="163.8" y="288.6" transform="translate(205.400011, 299.000016) scale(-1, 1) translate(-205.400011, -299.000016)"/><rect id="Rectangle-Copy-3" width="20.8" height="81.9" x="226.2" y="41.6" transform="translate(236.600013, 82.550005) scale(-1, 1) translate(-236.600013, -82.550005)"/><rect id="Rectangle-Copy-4" width="20.8" height="83.2" x="247" y="123.5" transform="translate(257.400014, 165.100009) scale(-1, 1) translate(-257.400014, -165.100009)"/><rect id="Rectangle-Copy-6" width="20.8" height="61.1" x="267.8" y="206.7" transform="translate(278.200015, 237.250013) scale(-1, 1) translate(-278.200015, -237.250013)"/></g></g></svg>